{
  "accessors": [
    {
      "bufferView": 2,
      "componentType": 5126,
      "count": 9818,
      "max": [
        2.1311299800872803,
        1.930799961090088,
        7.309510231018066
      ],
      "min": [
        -2.3229598999023438,
        -1.79367995262146,
        -0.06755000352859497
      ],
      "type": "VEC3"
    },
    {
      "bufferView": 2,
      "byteOffset": 117816,
      "componentType": 5126,
      "count": 9818,
      "max": [
        0.9909595847129822,
        0.9999561905860901,
        0.9998720288276672
      ],
      "min": [
        -0.9999964833259583,
        -0.9999601244926453,
        -0.9997044205665588
      ],
      "type": "VEC3"
    },
    {
      "bufferView": 1,
      "componentType": 5126,
      "count": 9818,
      "max": [
        0.9951300024986267,
        0.9994300007820129
      ],
      "min": [
        0.0005699999746866524,
        0.0005699999746866524
      ],
      "type": "VEC2"
    },
    {
      "bufferView": 0,
      "componentType": 5125,
      "count": 47592,
      "type": "SCALAR"
    },
    {
      "bufferView": 2,
      "byteOffset": 235632,
      "componentType": 5126,
      "count": 26292,
      "max": [
        2.5791499614715576,
        2.28125,
        7.434780120849609
      ],
      "min": [
        -2.62280011177063,
        -2.1456000804901123,
        2.207659959793091
      ],
      "type": "VEC3"
    },
    {
      "bufferView": 2,
      "byteOffset": 551136,
      "componentType": 5126,
      "count": 26292,
      "max": [
        0.9999900460243225,
        0.9999931454658508,
        0.9999740719795227
      ],
      "min": [
        -0.9999662041664124,
        -0.999987781047821,
        -0.9999552369117737
      ],
      "type": "VEC3"
    },
    {
      "bufferView": 1,
      "byteOffset": 78544,
      "componentType": 5126,
      "count": 26292,
      "max": [
        1.0,
        1.0
      ],
      "min": [
        0.0,
        0.0
      ],
      "type": "VEC2"
    },
    {
      "bufferView": 0,
      "byteOffset": 190368,
      "componentType": 5125,
      "count": 39438,
      "type": "SCALAR"
    }
  ],
  "asset": {
    "extras": {
      "author": "restlessmonkey (https://sketchfab.com/restlessmonkey)",
      "license": "CC-BY-4.0 (http://creativecommons.org/licenses/by/4.0/)",
      "source": "https://sketchfab.com/3d-models/tree-bake-upload-4e78d13152cf4214a256230765f6d6d3",
      "title": "Tree Bake Upload"
    },
    "generator": "Sketchfab-12.68.0",
    "version": "2.0"
  },
  "bufferViews": [
    {
      "buffer": 0,
      "byteLength": 348120,
      "name": "floatBufferViews",
      "target": 34963
    },
    {
      "buffer": 0,
      "byteLength": 288880,
      "byteOffset": 348120,
      "byteStride": 8,
      "name": "floatBufferViews",
      "target": 34962
    },
    {
      "buffer": 0,
      "byteLength": 866640,
      "byteOffset": 637000,
      "byteStride": 12,
      "name": "floatBufferViews",
      "target": 34962
    }
  ],
  "buffers": [
    {
      "byteLength": 1503640,
      "uri": "scene.bin"
    }
  ],
  "extensionsRequired": [
    "KHR_materials_pbrSpecularGlossiness"
  ],
  "extensionsUsed": [
    "KHR_materials_pbrSpecularGlossiness"
  ],
  "images": [
    {
      "uri": "textures/Leaves_diffuse.png"
    },
    {
      "uri": "textures/Material.002_diffuse.png"
    }
  ],
  "materials": [
    {
      "alphaMode": "BLEND",
      "doubleSided": true,
      "extensions": {
        "KHR_materials_pbrSpecularGlossiness": {
          "diffuseFactor": [
            1.0,
            1.0,
            1.0,
            1.0
          ],
          "diffuseTexture": {
            "index": 0
          },
          "glossinessFactor": 0.4,
          "specularFactor": [
            0.008864337041301535,
            0.008864337041301535,
            0.008864337041301535
          ]
        }
      },
      "name": "Leaves"
    },
    {
      "doubleSided": true,
      "extensions": {
        "KHR_materials_pbrSpecularGlossiness": {
          "diffuseFactor": [
            1.0,
            1.0,
            1.0,
            1.0
          ],
          "diffuseTexture": {
            "index": 1
          },
          "glossinessFactor": 0.4,
          "specularFactor": [
            0.0,
            0.0,
            0.0
          ]
        }
      },
      "name": "Material.002"
    }
  ],
  "meshes": [
    {
      "name": "meshname.019_0",
      "primitives": [
        {
          "attributes": {
            "NORMAL": 1,
            "POSITION": 0,
            "TEXCOORD_0": 2
          },
          "indices": 3,
          "material": 1,
          "mode": 4
        }
      ]
    },
    {
      "name": "meshname.020_0",
      "primitives": [
        {
          "attributes": {
            "NORMAL": 5,
            "POSITION": 4,
            "TEXCOORD_0": 6
          },
          "indices": 7,
          "material": 0,
          "mode": 4
        }
      ]
    }
  ],
  "nodes": [
    {
      "children": [
        1
      ],
      "matrix": [
        1.0,
        0.0,
        0.0,
        0.0,
        0.0,
        2.220446049250313e-16,
        -1.0,
        0.0,
        0.0,
        1.0,
        2.220446049250313e-16,
        0.0,
        0.0,
        0.0,
        0.0,
        1.0
      ],
      "name": "Sketchfab_model"
    },
    {
      "children": [
        2,
        4,
        6
      ],
      "name": "Root"
    },
    {
      "children": [
        3
      ],
      "matrix": [
        -0.29086000000000006,
        0.9551700000000001,
        -0.05519000000000001,
        0.0,
        -0.7711,
        -0.19988000000000003,
        0.6045200000000001,
        0.0,
        0.5663900000000001,
        0.21839000000000003,
        0.7946700000000001,
        0.0,
        4.076250000000001,
        1.00545,
        5.903860000000001,
        1.0
      ],
      "name": "Lamp"
    },
    {
      "name": "Lamp"
    },
    {
      "children": [
        5
      ],
      "name": "meshname.019"
    },
    {
      "mesh": 0,
      "name": "meshname.019_0"
    },
    {
      "children": [
        7
      ],
      "name": "meshname.020"
    },
    {
      "mesh": 1,
      "name": "meshname.020_0"
    }
  ],
  "samplers": [
    {
      "magFilter": 9729,
      "minFilter": 9987,
      "wrapS": 10497,
      "wrapT": 10497
    }
  ],
  "scene": 0,
  "scenes": [
    {
      "name": "Sketchfab_Scene",
      "nodes": [
        0
      ]
    }
  ],
  "textures": [
    {
      "sampler": 0,
      "source": 0
    },
    {
      "sampler": 0,
      "source": 1
    }
  ]
}
