{
  "accessors": [
    {
      "bufferView": 2,
      "componentType": 5126,
      "count": 970,
      "max": [
        11.547754287719727,
        11.547770500183105,
        34.264793395996094
      ],
      "min": [
        -11.547758102416992,
        -11.547747611999512,
        -0.366554319858551
      ],
      "type": "VEC3"
    },
    {
      "bufferView": 2,
      "byteOffset": 11640,
      "componentType": 5126,
      "count": 970,
      "max": [
        1.0,
        1.0,
        1.0
      ],
      "min": [
        -1.0,
        -1.0,
        -1.0
      ],
      "type": "VEC3"
    },
    {
      "bufferView": 3,
      "componentType": 5126,
      "count": 970,
      "max": [
        1.0,
        1.0,
        1.0,
        1.0
      ],
      "min": [
        -1.0,
        -1.0,
        -1.0,
        1.0
      ],
      "type": "VEC4"
    },
    {
      "bufferView": 1,
      "componentType": 5126,
      "count": 970,
      "max": [
        0.9959990382194519,
        0.9632177352905273
      ],
      "min": [
        0.003996722400188446,
        0.0037423130124807358
      ],
      "type": "VEC2"
    },
    {
      "bufferView": 0,
      "componentType": 5125,
      "count": 3216,
      "type": "SCALAR"
    }
  ],
  "asset": {
    "extras": {
      "author": "Artyom Korolkov (https://sketchfab.com/Psevdonim)",
      "license": "CC-BY-4.0 (http://creativecommons.org/licenses/by/4.0/)",
      "source": "https://sketchfab.com/3d-models/old-barrel-gam-ready-unity-69d6b29b6897459191e3c9eb167b4423",
      "title": "Old barrel gam-ready. UNITY"
    },
    "generator": "Sketchfab-15.40.0",
    "version": "2.0"
  },
  "bufferViews": [
    {
      "buffer": 0,
      "byteLength": 12864,
      "name": "floatBufferViews",
      "target": 34963
    },
    {
      "buffer": 0,
      "byteLength": 7760,
      "byteOffset": 12864,
      "byteStride": 8,
      "name": "floatBufferViews",
      "target": 34962
    },
    {
      "buffer": 0,
      "byteLength": 23280,
      "byteOffset": 20624,
      "byteStride": 12,
      "name": "floatBufferViews",
      "target": 34962
    },
    {
      "buffer": 0,
      "byteLength": 15520,
      "byteOffset": 43904,
      "byteStride": 16,
      "name": "floatBufferViews",
      "target": 34962
    }
  ],
  "buffers": [
    {
      "byteLength": 59424,
      "uri": "e.bin"
    }
  ],
  "images": [
    {
      "uri": "textures/TD_Checker_baseColor.jpeg"
    },
    {
      "uri": "textures/TD_Checker_metallicRoughness.png"
    },
    {
      "uri": "textures/TD_Checker_normal.png"
    }
  ],
  "materials": [
    {
      "doubleSided": true,
      "name": "TD_Checker",
      "normalTexture": {
        "index": 2
      },
      "pbrMetallicRoughness": {
        "baseColorTexture": {
          "index": 0
        },
        "metallicFactor": 0.0,
        "metallicRoughnessTexture": {
          "index": 1
        }
      }
    }
  ],
  "meshes": [
    {
      "name": "Barrel_low_TD_Checker_0",
      "primitives": [
        {
          "attributes": {
            "NORMAL": 1,
            "POSITION": 0,
            "TANGENT": 2,
            "TEXCOORD_0": 3
          },
          "indices": 4,
          "material": 0,
          "mode": 4
        }
      ]
    }
  ],
  "nodes": [
    {
      "children": [
        1
      ],
      "matrix": [
        1.0,
        0.0,
        0.0,
        0.0,
        0.0,
        2.220446049250313e-16,
        -1.0,
        0.0,
        0.0,
        1.0,
        2.220446049250313e-16,
        0.0,
        0.0,
        0.0,
        0.0,
        1.0
      ],
      "name": "Sketchfab_model"
    },
    {
      "children": [
        2
      ],
      "matrix": [
        0.009999999776482582,
        0.0,
        0.0,
        0.0,
        0.0,
        0.0,
        0.009999999776482582,
        0.0,
        0.0,
        -0.009999999776482582,
        0.0,
        0.0,
        0.0,
        0.0,
        0.0,
        1.0
      ],
      "name": "barrel lp.fbx"
    },
    {
      "children": [
        3
      ],
      "name": "RootNode"
    },
    {
      "children": [
        4
      ],
      "matrix": [
        2.5400004386901855,
        0.0,
        0.0,
        0.0,
        0.0,
        -4.1381859712695486e-07,
        -2.540000438690152,
        0.0,
        0.0,
        2.540000438690152,
        -4.1381859712695486e-07,
        0.0,
        0.0,
        0.0,
        0.0,
        1.0
      ],
      "name": "Barrel_low"
    },
    {
      "mesh": 0,
      "name": "Barrel_low_TD_Checker_0"
    }
  ],
  "samplers": [
    {
      "magFilter": 9729,
      "minFilter": 9987,
      "wrapS": 10497,
      "wrapT": 10497
    }
  ],
  "scene": 0,
  "scenes": [
    {
      "name": "Sketchfab_Scene",
      "nodes": [
        0
      ]
    }
  ],
  "textures": [
    {
      "sampler": 0,
      "source": 0
    },
    {
      "sampler": 0,
      "source": 1
    },
    {
      "sampler": 0,
      "source": 2
    }
  ]
}
