{
  "accessors": [
    {
      "bufferView": 2,
      "componentType": 5126,
      "count": 9486,
      "max": [
        156.1721649169922,
        33.38387680053711,
        76.79280090332031
      ],
      "min": [
        -88.23973083496094,
        -93.7520751953125,
        25.96449089050293
      ],
      "type": "VEC3"
    },
    {
      "bufferView": 2,
      "byteOffset": 113832,
      "componentType": 5126,
      "count": 9486,
      "max": [
        1.0,
        1.0,
        1.0
      ],
      "min": [
        -1.0,
        -1.0,
        -1.0
      ],
      "type": "VEC3"
    },
    {
      "bufferView": 3,
      "componentType": 5126,
      "count": 9486,
      "max": [
        1.0,
        1.0,
        1.0,
        1.0
      ],
      "min": [
        -1.0,
        -1.0,
        -1.0,
        -1.0
      ],
      "type": "VEC4"
    },
    {
      "bufferView": 1,
      "componentType": 5126,
      "count": 9486,
      "max": [
        0.9941186904907227,
        0.9937089681625366
      ],
      "min": [
        0.0022110058926045895,
        0.005065560340881348
      ],
      "type": "VEC2"
    },
    {
      "bufferView": 0,
      "componentType": 5125,
      "count": 32706,
      "type": "SCALAR"
    }
  ],
  "asset": {
    "extras": {
      "author": "oliverbengtsson (https://sketchfab.com/oliverbengtsson)",
      "license": "CC-BY-4.0 (http://creativecommons.org/licenses/by/4.0/)",
      "source": "https://sketchfab.com/3d-models/apocalyptic-hand-gun-6bc54de8afdf4ac99a8b05f2104c4bb8",
      "title": "Apocalyptic Hand-gun"
    },
    "generator": "Sketchfab-12.68.0",
    "version": "2.0"
  },
  "bufferViews": [
    {
      "buffer": 0,
      "byteLength": 130824,
      "name": "floatBufferViews",
      "target": 34963
    },
    {
      "buffer": 0,
      "byteLength": 75888,
      "byteOffset": 130824,
      "byteStride": 8,
      "name": "floatBufferViews",
      "target": 34962
    },
    {
      "buffer": 0,
      "byteLength": 227664,
      "byteOffset": 206712,
      "byteStride": 12,
      "name": "floatBufferViews",
      "target": 34962
    },
    {
      "buffer": 0,
      "byteLength": 151776,
      "byteOffset": 434376,
      "byteStride": 16,
      "name": "floatBufferViews",
      "target": 34962
    }
  ],
  "buffers": [
    {
      "byteLength": 586152,
      "uri": "scene.bin"
    }
  ],
  "images": [
    {
      "uri": "textures/Material_47_baseColor.png"
    },
    {
      "uri": "textures/Material_47_normal.png"
    }
  ],
  "materials": [
    {
      "alphaCutoff": 0.82,
      "alphaMode": "MASK",
      "doubleSided": true,
      "name": "Material_47",
      "normalTexture": {
        "index": 1
      },
      "pbrMetallicRoughness": {
        "baseColorTexture": {
          "index": 0
        },
        "metallicFactor": 0.0,
        "roughnessFactor": 0.6
      }
    }
  ],
  "meshes": [
    {
      "name": "lozwgun_Material #47_0",
      "primitives": [
        {
          "attributes": {
            "NORMAL": 1,
            "POSITION": 0,
            "TANGENT": 2,
            "TEXCOORD_0": 3
          },
          "indices": 4,
          "material": 0,
          "mode": 4
        }
      ]
    }
  ],
  "nodes": [
    {
      "children": [
        1
      ],
      "matrix": [
        1.0,
        0.0,
        0.0,
        0.0,
        0.0,
        8.881784197001252e-16,
        -1.0,
        0.0,
        0.0,
        1.0,
        8.881784197001252e-16,
        0.0,
        0.0,
        -3.552713678800505e-15,
        1.865174681370263e-14,
        1.0
      ],
      "name": "Sketchfab_model"
    },
    {
      "children": [
        2
      ],
      "matrix": [
        1.0,
        0.0,
        0.0,
        0.0,
        0.0,
        0.0,
        1.0,
        0.0,
        0.0,
        -1.0,
        0.0,
        0.0,
        0.0,
        0.0,
        0.0,
        1.0
      ],
      "name": "0f88ac300d004a80900b93cfc43cee4f.fbx"
    },
    {
      "children": [
        3
      ],
      "name": "RootNode"
    },
    {
      "children": [
        4
      ],
      "matrix": [
        -0.9475133419036832,
        1.160369181311758e-16,
        -8.283424772645072e-08,
        0.0,
        -8.616840738182133e-16,
        0.9365708231925963,
        1.1168495806694065e-08,
        0.0,
        6.520376478643975e-08,
        8.894102597030641e-09,
        -0.745844125747678,
        0.0,
        0.0,
        0.0,
        0.0,
        1.0
      ],
      "name": "lozwgun"
    },
    {
      "children": [
        5
      ],
      "matrix": [
        1.0,
        0.0,
        -0.0,
        0.0,
        0.0,
        1.0,
        0.0,
        0.0,
        0.0,
        0.0,
        1.0,
        0.0,
        54.008243560791016,
        -4.776715286425315e-06,
        -46.605045318603516,
        1.0
      ],
      "name": "Object_4"
    },
    {
      "mesh": 0,
      "name": "lozwgun_Material #47_0"
    }
  ],
  "samplers": [
    {
      "magFilter": 9729,
      "minFilter": 9987,
      "wrapS": 10497,
      "wrapT": 10497
    }
  ],
  "scene": 0,
  "scenes": [
    {
      "name": "Sketchfab_Scene",
      "nodes": [
        0
      ]
    }
  ],
  "textures": [
    {
      "sampler": 0,
      "source": 0
    },
    {
      "sampler": 0,
      "source": 1
    }
  ]
}
